<?xml version="1.0" encoding="UTF-8" standalone="no"?>
<svg width="32px" height="32px" viewBox="0 0 32 32" version="1.1" xmlns="http://www.w3.org/2000/svg" xmlns:xlink="http://www.w3.org/1999/xlink" xmlns:sketch="http://www.bohemiancoding.com/sketch/ns">
    <!-- Generator: Sketch 3.2.2 (9983) - http://www.bohemiancoding.com/sketch -->
    <title>Twitter</title>
    <desc>Created with Sketch.</desc>
    <defs></defs>
    <g id="Page-1" stroke="none" stroke-width="1" fill="none" fill-rule="evenodd" sketch:type="MSPage">
        <path d="M-419.94,-383 L580,-383 L580,117 L-419.94,117 L-419.94,-383 Z" id="Fill-1" sketch:type="MSShapeGroup"></path>
        <path d="M22.32,12.609 C22.327,12.75 22.33,12.891 22.33,13.033 C22.33,17.371 19.028,22.373 12.99,22.373 C11.136,22.373 9.411,21.83 7.958,20.898 C8.216,20.928 8.477,20.943 8.741,20.943 C10.28,20.943 11.694,20.42 12.817,19.539 C11.382,19.512 10.169,18.563 9.752,17.26 C9.952,17.297 10.157,17.318 10.369,17.318 C10.669,17.318 10.959,17.277 11.233,17.203 C9.733,16.9 8.601,15.574 8.601,13.984 L8.601,13.943 C9.044,14.189 9.55,14.336 10.088,14.354 C9.207,13.766 8.628,12.76 8.628,11.621 C8.628,11.02 8.79,10.455 9.072,9.971 C10.69,11.957 13.11,13.264 15.838,13.4 C15.782,13.16 15.753,12.91 15.753,12.652 C15.753,10.84 17.223,9.371 19.036,9.371 C19.979,9.371 20.833,9.77 21.432,10.406 C22.179,10.26 22.882,9.986 23.517,9.609 C23.271,10.377 22.751,11.02 22.073,11.426 C22.737,11.348 23.37,11.17 23.958,10.91 C23.519,11.568 22.962,12.146 22.32,12.609 L22.32,12.609 Z M15.958,-0.129 C7.122,-0.129 -0.042,7.035 -0.042,15.871 C-0.042,24.709 7.122,31.871 15.958,31.871 C24.794,31.871 31.958,24.709 31.958,15.871 C31.958,7.035 24.794,-0.129 15.958,-0.129 L15.958,-0.129 Z" id="Twitter" fill="#39A0CE" sketch:type="MSShapeGroup"></path>
    </g>
</svg>